<svg xmlns="http://www.w3.org/2000/svg"  viewBox="0 0 100 106.9">
    <style>
        .st0{fill:#474d54}
    </style>
    <path fill='#3cd891'  d="M85.8 77.5H68.1c-1.5 0-2.6-1-2.6-2.2 0-1.3 1.2-2.2 2.6-2.2h17.8c1.5 0 2.6 1 2.6 2.2-.1 1.1-1.2 2.2-2.7 2.2z"  />
    <g id="Слой_2">
        <path fill='#3cd891' d="M80.1 55.2c-.7-.2-1.6.4-1.7 1.2-.2.8.4 1.6 1.2 1.7C88 59.6 94 66.8 94 75.2s-6.1 15.5-14 17.1h-.1c-1 .2-2.2.3-3.2.3h-.1c-2.1 0-4-.4-5.9-1-.1 0-.1-.1-.2-.1-.1-.1-.3-.1-.4-.2-.1 0-.1-.1-.2-.1-.2-.1-.3-.1-.5-.2-.1 0-.1-.1-.2-.1s-.2-.1-.3-.1c-.1 0-.1-.1-.2-.1s-.1-.1-.2-.1c-.2-.1-.3-.2-.5-.3 0 0-.1 0-.1-.1-.1 0-.1-.1-.2-.1 0 0-.1 0-.1-.1-.1-.1-.3-.2-.4-.2-.1-.1-.3-.2-.4-.2-4.8-3.1-7.9-8.5-7.9-14.6v-.2c0-2.1.5-4 1.1-5.9.7-1.6 1.5-3.2 2.6-4.6 0-.1.1-.1.1-.2 2.5-3.2 6.2-5.4 10.5-6.3.8-.2 1.3-.9 1.2-1.7-.1-.7-.9-1.3-1.7-1.2-4.7.8-8.7 3.3-11.7 6.6l-9.1-3.6V53c3.3-2.5 5.6-6.4 6.1-10.7 1.7-.1 3.2-.7 4.4-1.7 1.6-1.3 2.4-3.3 2.4-5.3 0-1.7-.7-3.4-1.8-4.7v-6.5c.1-11.2-9.3-20.6-20.9-20.6s-21 9.4-21 21V31c-1.1 1.3-1.8 2.8-1.8 4.5 0 2.1.8 4 2.4 5.3 1.2 1 2.8 1.7 4.4 1.7.4 3.5 1.9 6.6 4.3 9.1.7.7 1.3 1.3 2.1 1.8v4.9l-20.6 8c-.3.3-8.8 3.9-8.8 13.8v20.2c0 1.9 1.5 3.3 3.3 3.3h71.7c1.8 0 3.3-1.5 3.3-3.3v-5.2c8.8-2.2 15.3-10.3 15.3-19.7.1-10-6.9-18.4-16.6-20.2zM56.3 63L51 73.7l-6.5-4.6 5-6.2L51 61l5.3 2zm-14 8.2l3.7 2.7-1.5 2.2H40l-1.5-2.2 3.8-2.7zm0-4.2l-6.6-8.2v-3.6c2 .8 4 1.3 6.3 1.3H43.4c.3 0 .7-.1.9-.1 1.6-.2 3.1-.7 4.5-1.3v3.8L42.3 67zm18.4-34.5c.8.7 1.3 1.9 1.3 3 0 1.2-.6 2.3-1.4 3.1-.7.6-1.5.9-2.3 1v-8.2c.7.1 1.3.3 1.9.7h.1c0 .1.2.3.4.4zm-34.6 7.1c-.9-.1-1.7-.5-2.3-1-.9-.7-1.4-1.9-1.4-3.1 0-1 .5-2 1.2-2.8h.1c.7-.7 1.6-1 2.5-1.2l-.1 8.1zm1.1-12.8c-.2.2-.3.3-.4.5 0 0 0 .1-.1.1 0 0 0 .1-.1.1-.7.1-1.4.2-2.1.5v-4.6c0-9.9 8-18.1 18.1-18.1s18.1 8 18.1 18.1v4.5c-.7-.2-1.3-.4-2.1-.4v-.4c0-1.1-.2-1.3-2.9-4.2l-.3-.3c-.5-.6-1-1.1-1.8-1.9-.1-.2-.3-.3-.5-.5-.9-.9-2.3-1.1-3.5-.5 0 0-.1 0-.1.1-2 1.3-4.1 2.4-6.4 3.3H43c-.5.2-.9.4-1.4.5-3.9 1.3-8.1 1.9-12.1 1.7h-.2c-.8.9-1.6 1.1-2.1 1.5zm1.9 14.3v-.2-11.7c3.6.3 7.3-.2 10.9-1.1 3.6-.9 7.3-2.5 10.5-4.6.1 0 .1-.1.2-.1l.4.4.1.1.1.1.1.1c.6.6 1 1.1 1.4 1.5.1.1.2.2.2.3l.6.6.1.1c.7.7 1.2 1.3 1.4 1.6V41c-.1 4.2-2.2 7.9-5.5 10.1 0 0-.1 0-.1.1-1.9 1.3-4.1 2.1-6.5 2.2H42.2c-1.9 0-3.6-.4-5.3-1-4.9-2-7.7-6.7-7.8-11.3zm4.6 20l6.5 8-6.5 4.6L28.5 63l5.2-1.9zm-14 39.5V83.2c0-.8-.7-1.5-1.5-1.5s-1.5.7-1.5 1.5v17.4H6.4c-.2 0-.4-.2-.4-.4V80c0-7.9 6.6-10.9 7-11l12.6-4.8 5.5 11c.4.7 1 1.2 1.8 1.4.2.1.5.1.7.1.6 0 1.1-.2 1.6-.5l.9-.7 1.6 2.3-3.8 22.6H19.7v.2zm45.3 0H50.7l-1.3-7.8c-.1-.8-.9-1.3-1.7-1.2-.8.1-1.3.9-1.2 1.7l1.2 7.3H36.9L40.6 79h3.6l1.2 7.4c.1.8.9 1.3 1.7 1.2.8-.1 1.3-.9 1.2-1.7l-1.4-8 1.6-2.3.9.7c.5.4 1 .5 1.6.5.2 0 .5 0 .7-.1.7-.2 1.4-.7 1.8-1.4l5.5-11 .3.1c-.7 1-1.2 2.1-1.7 3.2-.9 2.2-1.4 4.7-1.5 7.2V75.4c0 6.2 2.8 11.8 7.1 15.5l.1.1.2.2.2.2c.1.1.2.2.3.2l.1.1.2.2c.1.1.3.2.4.3.1.1.3.2.4.3v8.1H65zm13.5-.4c0 .2-.2.4-.4.4H67.9v-6.8c.5.2.9.4 1.4.6.1 0 .2.1.3.1s.3.1.4.1c.2.1.3.1.5.2 1.9.6 3.9.9 6.1.9.7 0 1.4 0 2.2-.1l-.3 4.6zM44.5 69zM40.2 69z"  />
    </g>
</svg>
