<svg xmlns="http://www.w3.org/2000/svg" id="Capa_1" viewBox="0 0 115.6 100">
 
    <path fill='#3cd891' d="M114.2 100H65.8c-.7 0-1.4-.6-1.4-1.4v-6.2c0-.7.6-1.4 1.4-1.4h48.4c.7 0 1.4.6 1.4 1.4v6.2c0 .8-.6 1.4-1.4 1.4zm-47-2.7h45.7v-3.5H67.2v3.5zm-59.3-.4c-.5.2-1.2.2-1.6-.2L.4 90.8c-.6-.6-.6-1.4 0-2l30.1-30.4c.2-.2.6-.3.9-.3s.7.1.9.3l.7.6 15-15.2-1.2-1.2c-.2-.2-.3-.6-.3-.9s.1-.7.3-.9l2.7-2.7-1.5-1.5c-.2-.2-.3-.6-.3-.9 0-.3.1-.7.3-.9l1.6-1.6-2.5-2.5H47c-.2.2-.6.5-.8.6-1.4.7-3 .5-4-.6l-3-3c-2.7-2.7-2.7-6.9 0-9.6l15.6-16c.5-.5 1-.9 1.7-1.3 2.7-1.4 5.8-.9 8 1.2l3 3c1.4 1.4 1.4 3.6 0 4.9l-.1.1 2.5 2.5 1.6-1.6c.2-.2.6-.3.9-.3.3 0 .7.1.9.3l12.1 12c.2.2.3.6.3.9s-.1.7-.3.9l-1.6 1.6 2.5 2.5.1-.1c.2-.2.6-.5.8-.6 1.4-.7 3-.5 4 .6l3 3c1.3 1.3 2 3 2 4.9s-.7 3.6-2 4.9L78.7 57.4c-.5.5-1 .9-1.7 1.3-2.7 1.4-5.8.9-8-1.2l-3-3c-.7-.7-1-1.5-1-2.4 0-.9.3-1.7 1-2.4l.1-.1-2.5-2.7-1.6 1.6c-.6.6-1.4.6-2 0L58.5 47 56 49.6c-.6.6-1.4.6-2 0l-1.2-1.2-15 15.2.6.6c.6.6.6 1.4 0 2L8.3 96.7c-.1.1-.2.1-.4.2zm-4.6-7.1l3.9 3.9 28.2-28.5-3.9-3.9L3.3 89.8zm75-48.7L68 51.5c-.1.1-.2.3-.2.6 0 .2.1.3.2.6l3 3c1.3 1.3 3.2 1.5 4.7.7.3-.2.7-.5 1-.7l15.8-15.9c.8-.8 1.2-1.8 1.2-2.9 0-1-.5-2.1-1.3-2.9l-3-3c-.2-.2-.8-.2-1 0L78.3 41.1zM65.6 45l2.5 2.5 16.5-16.6-2.5-2.7L65.6 45zM35.1 61l.8.8 15-15.2-.8-.8-15 15.2zm21.6-19.8l4.4 4.4 21.6-21.8-10.2-10-21.6 21.8 1.5 1.5 4.3 4.1zm-6.8.5l5.1 5.1 1.7-1.7-5.1-5.1-1.7 1.7zm-1-13.1l2.5 2.5L68 14.5 65.5 12 48.9 28.6zm8.8-25.4c-.3.2-.7.5-1 .7L40.9 19.8c-1.6 1.6-1.6 4.2 0 5.8l3 3c.2.2.8.2 1 0L65.5 7.8c.2-.3.2-.8 0-1l-3-3c-1.2-1.2-3.2-1.5-4.8-.6z" />
</svg>
