<svg xmlns="http://www.w3.org/2000/svg" viewBox="0 0 100 100.1">
    <path fill='#3cd891' d="M99.1 61.4c-3-4-6-4-13.3-.2L71.4 70c-2 1.2-6.5 1.5-10.7 1.5.8-1.5.5-3.3-1-5.5-2.7-3.8-7.2-6.2-12-6.2h-6.5c-3.5 0-6.8-1-9.5-3-6-4.5-15.4.4-20 3.3v-3.5H0V100h11.7v-5h21.7c3.3 0 6.8-.3 10.2-.7L65.3 91c.8 0 1.7-.2 2.3-.3 2-.3 3.8-1.3 5.5-2.8L98.2 68c2-1.6 2.4-4.6.9-6.6zM8.3 96.7h-5V60h5v36.7zm87.9-30.8L70.9 85.6l-.2.2c-1.2 1-2.3 1.7-3.7 1.8h-.2c-.7.2-1.2.2-1.8.2l-22 3.3c-3.2.5-6.5.7-9.7.7H11.7V64.2c4-2.8 13.3-8.2 18-4.5 3.2 2.3 7.2 3.7 11.5 3.7h6.5c3.8 0 7.3 1.7 9.5 5 .7 1 .8 2 .7 2.3-.5.8-2.5 1.2-4.7 1.3H35.7c-5.2 0-8.3 2.5-8.3 6.7 0 1 .7 1.7 1.7 1.7s1.7-.7 1.7-1.7c0-.8 0-3.3 5-3.3h18.5c7.8.2 15.2 0 19-2l14.3-8.8c7-3.5 7.7-2.7 9-.7.3.5.3 1.5-.4 2zM75.1 20a6.7 6.7 0 1 0 0-13.4 6.7 6.7 0 0 0 0 13.4zm0-10c1.8 0 3.3 1.5 3.3 3.3s-1.5 3.3-3.3 3.3-3.3-1.5-3.3-3.3 1.4-3.3 3.3-3.3z"/>
    <path fill='#3cd891' d="M35 51.9c.2.8.8 1.3 1.7 1.3H45c1 0 1.7-.7 1.8-1.3v-5h6.7c1 0 1.7-.7 1.7-1.7v-5h5c1 0 1.7-.7 1.7-1.7v-5h5c.5 0 1-.3 1.3-.7 0 0 1.4-1.6 2.6-3.1.8.1 1.7.2 2.5.2 8.3 0 15-6.7 15-15s-6.7-15-15-15-15 6.7-15 15c0 1 .1 1.9.3 2.9L33.9 42c-.5.3-.7 1-.5 1.5l1.6 8.4zM73.4 3.3c6.5 0 11.7 5.2 11.7 11.7s-5.2 11.7-11.7 11.7c-1 0-2-.1-3-.4-4.1-1.2-7.2-4.3-8.2-8.3 0-.1-.1-.3-.2-.4-.2-.8-.3-1.7-.3-2.6 0-6.5 5.2-11.7 11.7-11.7zm-13.7 18c.3.7.8 1.4 1.2 2.1 0 .1.1.1.1.2 1.5 2.1 3.5 3.8 5.9 5-.5.5-.8.9-1.1 1.3H60c-1 0-1.7.7-1.7 1.7v5h-5c-1 0-1.7.7-1.7 1.7v5H45c-1 0-1.7.7-1.7 1.7v5H38l-1.2-6 22.9-22.7z"/>
</svg>
