<svg xmlns="http://www.w3.org/2000/svg" viewBox="0 0 100 100.4">
    <path fill='#3cd891' d="M93.7 6.6H56.8v-5c0-1-.6-1.6-1.6-1.6h-10c-1 0-1.6.6-1.6 1.6v5h-37C3 6.6 0 9.6 0 13.4v45.2c0 3.6 3 6.6 6.6 6.6h36.7v13.4c0 4-1 8.2-2.8 11.8-1.2.4-2.2 1.6-2.2 3.2v5c0 1 .6 1.6 1.6 1.6H60c1 0 1.6-.6 1.6-1.6v-5c0-1.4-.8-2.6-2.2-3.2-1.8-3.6-2.8-7.6-2.8-11.8V65.2h36.7c3.6 0 6.6-3 6.6-6.6V13.4c.5-3.8-2.5-6.8-6.2-6.8zM46.8 3.4h6.6v3.4h-6.6V3.4zm9 86.9H44.4c1.4-3.2 2.2-6.6 2.4-10h6.6c.4 3.6 1.2 6.8 2.4 10zm2.8 6.7H42v-3.4h16.7V97zm-5-20.1H47V65.2h6.6v11.7zM97 58.6c0 1.8-1.6 3.4-3.4 3.4h-87c-1.8 0-3.4-1.6-3.4-3.4V13.4c.2-1.8 1.6-3.4 3.4-3.4h87c1.8 0 3.4 1.6 3.4 3.4v45.2z"/>
    <path fill='#3cd891' d="M46.8 24.1c-1-1-2.2-1.6-3.6-1.6l-6.6-.6c-.8-4.8-5-8.4-9.8-8.4-4.2 0-8 2.8-9.4 6.8-4.8.6-8.6 4.8-8.6 10 0 3 1.2 5.6 3.4 7.4v16.5c0 .6.2 1 .6 1.4l5 4.4s.4.2.8.2.8-.2 1-.4l5-4.4c.4-.4.6-.8.6-1.4 0-.6-.2-1-.6-1.4L23 51.4l2-2c.6-.6.6-1.6 0-2.4l-2.2-2.2 2.2-2.2c.4-.4.6-.6.6-1.2v-4.2c1.2-1.2 2.2-2.6 2.8-4.2 1 0 1.8-.4 2.6-.6l.2 2c.2 1.4.6 2.6 1.6 3.6L45 50.2c.4.4.6.6 1.2.6s.8-.2 1.2-.6l11.8-11.8c.6-.6.6-1.6 0-2.4L46.8 24.1zm-28.7-.6h.6c3.4.2 6.4 3 6.4 6.4-1.4-.4-2.6-1.2-3.6-2.4-.6-.6-1.6-.8-2.4-.4-.6.6-.8 1.6-.4 2.4 1.4 1.8 3.4 3.2 5.6 3.8-1.2 2.2-3.4 3.6-6 3.6-3.6 0-6.6-3-6.6-6.6-.1-3.8 3-6.8 6.4-6.8zm3.8 17.6L19.1 44c-.6.6-.6 1.6 0 2.4l2.2 2.2-2.2 2.2c-.4.4-.6.8-.6 1.4 0 .6.4.8.6 1.2l1.6.8-2.4 2-3.4-2.8h.2V39.7c2.2.8 4.6.8 6.6 0l.2 1.4zm6.6-11.2c0-4.6-3.4-8.4-7.8-9.6 1.2-2.2 3.4-3.6 6-3.6 3.2 0 6 2.4 6.6 5.4-.6.2-1 .6-1.6 1-1 1.2-1.6 2.6-1.6 4.4l.2 1.6c-.6.4-1.2.6-1.8.8zM45.8 47l-11-11c-.4-.4-.6-.8-.6-1.4l-.6-7.2c0-.6.2-1.2.6-1.6.6-.6 1-.6 1.6-.6h.2l7.2.6c.6 0 1 .4 1.4.6l11 11-9.8 9.6zM91.9 25.1H65.2c-1 0-1.6.6-1.6 1.6s.6 1.6 1.6 1.6h26.7c1 0 1.6-.6 1.6-1.6s-.6-1.6-1.6-1.6zM91.9 35.1H78.5c-1 0-1.6.6-1.6 1.6s.6 1.6 1.6 1.6h13.4c1 0 1.6-.6 1.6-1.6s-.6-1.6-1.6-1.6zM65.2 38.5h6.6c1 0 1.6-.6 1.6-1.6s-.6-1.6-1.6-1.6h-6.6c-1 0-1.6.6-1.6 1.6 0 .8.6 1.6 1.6 1.6zM91.9 45.2h-8.4c-1 0-1.6.6-1.6 1.6s.6 1.6 1.6 1.6h8.4c1 0 1.6-.6 1.6-1.6s-.6-1.6-1.6-1.6zM76.9 45.2H65.2c-1 0-1.6.6-1.6 1.6s.6 1.6 1.6 1.6h11.6c1 0 1.6-.6 1.6-1.6s-.5-1.6-1.5-1.6z"/>
    <path fill='#3cd891' d="M42.4 30.7L39 34.1c-.6.6-.6 1.6 0 2.4.4.4.6.6 1.2.6s.8-.2 1.2-.6l3.4-3.4c.6-.6.6-1.6 0-2.4-.8-.8-1.8-.8-2.4 0zM44 41.4c.4.4.6.6 1.2.6s.8-.2 1.2-.6l3.4-3.4c.6-.6.6-1.6 0-2.4-.6-.6-1.6-.6-2.4 0L44 38.9c-.6.8-.6 1.8 0 2.5z"/>
</svg>
